# xmcd
#
# Track frame offsets:
#	150
#	22072
#	35079
#	46370
#	61539
#	80625
#	97098
#	110739
#	130248
#	149370
#	166621
#	181874
#	205153
#
# Disc length: 3002 seconds
#
# Revision: 1
# Processed by: cddbd v1.5.1PL0 Copyright (c) Steve Scherf et al.
# Submitted via: CDex 1.50Beta5
#
DISCID=b30bb80d
DTITLE=フラワーカンパニーズ - 発熱の男
DYEAR=1900
DGENRE=Rock
TTITLE0=発熱の男
TTITLE1=波の下
TTITLE2=カリフォルニア
TTITLE3=NUDE CORE ROCK'N'ROLL
TTITLE4=ホルスター
TTITLE5=馬鹿の最高
TTITLE6=裸の大将
TTITLE7=真冬の盆踊り
TTITLE8=夕焼け
TTITLE9=春を待つ
TTITLE10=人生は喜劇だ
TTITLE11=吐きたくなるほど愛されたい
TTITLE12=星を見ている
EXTD=
EXTT0=
EXTT1=
EXTT2=
EXTT3=
EXTT4=
EXTT5=
EXTT6=
EXTT7=
EXTT8=
EXTT9=
EXTT10=
EXTT11=
EXTT12=
PLAYORDER=
